<svg width="12" height="10" viewBox="0 0 12 10" fill="none" xmlns="http://www.w3.org/2000/svg">
<path d="M11.768 4.43999L7.70401 0.375994C7.39401 0.0659936 6.89201 0.0659936 6.58201 0.375994L6.23201 0.725994C5.92201 1.03599 5.92201 1.53799 6.23201 1.84799L8.82601 4.44199C8.98201 4.59799 9.05801 4.79999 9.05801 5.00199C9.05801 5.20399 8.98001 5.40799 8.82601 5.56199L6.23201 8.15599C5.92201 8.46599 5.92201 8.96799 6.23201 9.278L6.58201 9.628C6.89201 9.934 7.39401 9.934 7.70401 9.62399L11.768 5.55999C11.924 5.40399 12 5.20199 12 4.99999C12 4.79799 11.922 4.59399 11.768 4.43999ZM5.76801 4.43999L1.70401 0.375994C1.39401 0.0659936 0.892012 0.0659936 0.582012 0.375994L0.232012 0.725994C-0.0779883 1.03599 -0.0779883 1.53799 0.232012 1.84799L2.82601 4.44199C2.98201 4.59799 3.05801 4.79999 3.05801 5.00199C3.05801 5.20399 2.98001 5.40799 2.82601 5.56199L0.232012 8.15599C-0.0779883 8.46599 -0.0779883 8.96799 0.232012 9.278L0.582012 9.628C0.892012 9.934 1.39401 9.934 1.70401 9.62399L5.76801 5.55999C5.92401 5.40399 6.00001 5.20199 6.00001 4.99999C6.00001 4.79799 5.92201 4.59399 5.76801 4.43999Z" fill="white"/>
</svg>
